<svg width="65" height="41" viewBox="0 0 65 41" fill="none" xmlns="http://www.w3.org/2000/svg">
<g clip-path="url(#clip0)">
<path d="M25.4769 38.8082H28.2867C28.2831 39.4777 28.261 39.9087 28.2225 40.1047C28.1802 40.3211 28.1104 40.4857 28.0168 40.5986C27.9213 40.7114 27.7744 40.8002 27.576 40.8668C27.3152 40.9518 26.7349 40.9944 25.835 40.9944C24.9903 40.9944 24.3934 40.9666 24.0426 40.9111C23.7231 40.8594 23.4917 40.7206 23.3503 40.4913C23.196 40.2471 23.1189 39.7052 23.1189 38.8673C23.1189 38.2866 23.1611 37.8334 23.2438 37.5097C23.3264 37.1898 23.5211 36.9808 23.8278 36.8809C24.1345 36.7828 24.7258 36.7329 25.6 36.7329C25.8846 36.7329 26.206 36.7403 26.5641 36.7551C26.9222 36.7699 27.1665 36.7865 27.2969 36.805C27.5742 36.8439 27.7982 36.9512 27.9709 37.1287C28.0737 37.236 28.1472 37.3599 28.1876 37.4986C28.2298 37.6374 28.2518 37.8427 28.2555 38.1127H27.5944C27.5889 37.7742 27.5466 37.5652 27.4695 37.4857C27.4218 37.4395 27.3501 37.4043 27.2565 37.3821C27.1628 37.3599 27.0104 37.3396 26.7974 37.3248C26.4998 37.3044 26.1307 37.2933 25.6918 37.2933C25.1133 37.2933 24.7001 37.3081 24.4503 37.3377C24.2024 37.3673 24.0408 37.4191 23.9655 37.4931C23.8939 37.5597 23.8443 37.6873 23.8149 37.876C23.7855 38.0628 23.7708 38.368 23.7708 38.7878C23.7708 39.4111 23.7966 39.8217 23.8461 40.0178C23.8774 40.1288 23.9233 40.2083 23.9857 40.2601C24.0482 40.3119 24.1436 40.347 24.2704 40.3674C24.5403 40.4099 25.1298 40.4321 26.0407 40.4321C26.5421 40.4321 26.913 40.4118 27.1518 40.3711C27.352 40.3378 27.4805 40.2638 27.5374 40.1473C27.5944 40.0307 27.6256 39.7681 27.6311 39.3575H25.4696V38.8082H25.4769Z" fill="white"/>
<path d="M29.8267 40.9851V36.7495H32.4565C33.1599 36.7569 33.6098 36.7754 33.8081 36.8013C34.1662 36.8475 34.4142 37.0103 34.5519 37.2877C34.6419 37.469 34.686 37.7206 34.686 38.0405C34.686 38.2828 34.6731 38.4678 34.6456 38.5954C34.618 38.723 34.5703 38.8266 34.5005 38.9061C34.3866 39.0319 34.2599 39.1115 34.1203 39.141C34.2066 39.1558 34.3077 39.2206 34.4215 39.3371C34.5042 39.4277 34.5574 39.5332 34.5795 39.6534C34.6015 39.7755 34.6125 40.0104 34.6125 40.3618V40.9851H33.9679V40.5541C33.9679 40.2138 33.9606 39.9789 33.9459 39.8513C33.9073 39.5997 33.7714 39.4555 33.5363 39.4148C33.4372 39.4 33.349 39.3926 33.27 39.3889C33.1929 39.3852 32.9211 39.3833 32.4547 39.3815H30.4676V40.9869H29.8267V40.9851ZM30.4713 38.8285H32.4583C32.9946 38.8285 33.3362 38.8211 33.4831 38.8063C33.63 38.7915 33.7475 38.7563 33.8338 38.699C33.9661 38.6121 34.0303 38.3883 34.0303 38.0294C34.0303 37.7224 33.9679 37.5245 33.8449 37.4357C33.7677 37.3784 33.641 37.3414 33.4665 37.3247C33.2921 37.3081 32.9542 37.2988 32.4565 37.2988H30.4694V38.8285H30.4713Z" fill="white"/>
<path d="M38.9142 36.7366C39.6267 36.7366 40.1317 36.7606 40.4292 36.8069C40.7268 36.8531 40.9453 36.9474 41.0849 37.088C41.173 37.1731 41.241 37.2748 41.2832 37.3932C41.3273 37.5116 41.3603 37.6743 41.3842 37.8833C41.4154 38.1478 41.4301 38.4826 41.4301 38.884C41.4301 39.3981 41.4063 39.7884 41.3585 40.0548C41.3108 40.3211 41.2263 40.519 41.1051 40.6448C40.9747 40.7835 40.7672 40.8778 40.4825 40.9259C40.1979 40.974 39.7351 40.9999 39.0978 40.9999C38.7856 40.9999 38.4404 40.9943 38.0584 40.9851C37.6782 40.974 37.4266 40.9648 37.3054 40.9537C37.0924 40.9333 36.9234 40.8982 36.8004 40.8482C36.6755 40.7983 36.5635 40.7206 36.4643 40.617C36.3376 40.482 36.2531 40.2952 36.2109 40.0566C36.1686 39.8162 36.1484 39.4166 36.1484 38.8525C36.1484 38.1848 36.1944 37.7113 36.2843 37.4302C36.3982 37.088 36.659 36.8845 37.0703 36.8217C37.434 36.768 38.0473 36.7384 38.9142 36.7366ZM38.5946 37.3007C38.0198 37.3007 37.5974 37.3247 37.3275 37.371C37.1824 37.395 37.0759 37.4376 37.0116 37.4949C36.9473 37.5522 36.9014 37.6521 36.8757 37.7927C36.8298 38.0257 36.8059 38.3642 36.8059 38.8118C36.8059 39.2724 36.8188 39.6071 36.8445 39.8143C36.8702 40.0215 36.9142 40.1602 36.9767 40.2268C37.0226 40.2804 37.0924 40.3192 37.1842 40.3433C37.276 40.3673 37.4285 40.3877 37.6378 40.4006C37.9923 40.4247 38.4036 40.4376 38.8701 40.4376C39.5349 40.4376 40.0179 40.4099 40.3191 40.3544C40.5358 40.3174 40.6662 40.1842 40.7084 39.9567C40.7543 39.6978 40.7782 39.3445 40.7782 38.8951C40.7782 38.3457 40.758 37.961 40.7176 37.7391C40.679 37.5245 40.5339 37.3987 40.2842 37.3599C40.1262 37.3358 39.9481 37.3192 39.7498 37.3118C39.5514 37.3062 39.1658 37.3025 38.5946 37.3007Z" fill="white"/>
<path d="M42.9561 36.7497H43.6007V38.8323C43.6007 39.4371 43.6062 39.8015 43.619 39.9236C43.6355 40.0789 43.6778 40.1881 43.7457 40.2546C43.8137 40.3194 43.9275 40.3619 44.091 40.3823C44.3756 40.4174 44.7888 40.434 45.3269 40.434C46.0634 40.434 46.5702 40.4119 46.8475 40.3675C47.0018 40.3434 47.1083 40.2953 47.1707 40.225C47.2332 40.1548 47.2681 40.0364 47.2791 39.8681C47.2901 39.7109 47.2956 39.365 47.3011 38.8304V36.7478H47.9457V38.8304C47.9421 39.3872 47.931 39.7719 47.9145 39.9827C47.8778 40.3545 47.7401 40.6135 47.5013 40.7633C47.3507 40.8539 47.1726 40.9094 46.9651 40.9334C46.7575 40.9575 46.2543 40.9778 45.4573 40.9963C44.7576 40.9852 44.3371 40.9778 44.1975 40.9704C44.0579 40.963 43.9055 40.9427 43.7384 40.9075C43.4482 40.8447 43.2389 40.6819 43.1066 40.4211C43.0442 40.2972 43.0056 40.1492 42.9891 39.9753C42.9744 39.8033 42.9634 39.4205 42.9579 38.8304V36.7497H42.9561Z" fill="white"/>
<path d="M49.5483 40.9851V36.7495H52.2186C52.9091 36.7643 53.3278 36.781 53.4729 36.7976C53.6125 36.8179 53.741 36.8679 53.8567 36.9493C53.9724 37.0307 54.0606 37.1287 54.1156 37.2471C54.2075 37.4339 54.2516 37.7095 54.2516 38.0701C54.2516 38.3531 54.2277 38.5788 54.1781 38.7434C54.1303 38.908 54.0477 39.0393 53.9357 39.1373C53.8181 39.2372 53.6969 39.3057 53.5702 39.3408C53.4435 39.3759 53.2525 39.3981 52.9954 39.4074C52.9017 39.4092 52.6428 39.4111 52.2186 39.4129H50.1929V40.9851H49.5483ZM50.1911 38.8636H52.2167C52.7218 38.8618 53.0303 38.8544 53.1478 38.8414C53.2635 38.8285 53.3627 38.7896 53.4417 38.7267C53.4986 38.6786 53.539 38.6084 53.561 38.5159C53.5849 38.4234 53.5959 38.2828 53.5959 38.0905C53.5959 37.8778 53.5849 37.7279 53.5647 37.641C53.5445 37.5541 53.5059 37.4875 53.449 37.4431C53.3755 37.3876 53.2819 37.3543 53.1644 37.3395C53.0487 37.3247 52.7309 37.3136 52.2149 37.3025H50.1893V38.8636H50.1911Z" fill="white"/>
<path d="M4.16144 30.1261C4.55628 30.1261 4.89052 30.2537 5.16415 30.509C5.43962 30.7642 5.57736 31.0731 5.57736 31.4375V31.456H4.43691C4.44242 31.4449 4.44426 31.4375 4.44058 31.4375C4.44058 31.3432 4.40569 31.2636 4.33223 31.2007C4.26612 31.1305 4.1798 31.0972 4.07329 31.1046H1.63446C1.53345 31.0972 1.44897 31.1323 1.37735 31.2026C1.30757 31.2655 1.27451 31.3432 1.27451 31.4356C1.27635 31.53 1.31308 31.6095 1.38102 31.6742C1.45081 31.739 1.53345 31.7723 1.63446 31.7723C1.92278 31.7723 2.36721 31.7723 2.96773 31.7686C3.5701 31.763 4.01269 31.763 4.29917 31.7686C4.70503 31.7649 5.05029 31.8999 5.33311 32.1644C5.62327 32.427 5.76468 32.7451 5.75733 33.1188C5.75917 33.4924 5.61776 33.8105 5.32943 34.0713C5.05029 34.334 4.70503 34.4653 4.29917 34.4653H1.45816C1.05781 34.4653 0.71255 34.3321 0.424224 34.0713C0.141408 33.8142 0 33.4961 0 33.1225H1.09454V33.128C1.09454 33.2334 1.13494 33.3259 1.21758 33.4018C1.29838 33.4776 1.39572 33.5164 1.50958 33.5164H4.18899C4.30652 33.5109 4.40385 33.4739 4.48466 33.4055C4.56363 33.3296 4.60403 33.239 4.60403 33.1336C4.60403 33.0281 4.56363 32.9375 4.48282 32.8635C4.40202 32.784 4.30468 32.747 4.19082 32.747H1.42326C1.0321 32.7451 0.697858 32.6175 0.422388 32.3623C0.146918 32.1052 0.00918235 31.7945 0.00918235 31.4356C0.00918235 31.0731 0.146918 30.7679 0.422388 30.5182C0.696022 30.2667 1.03026 30.1354 1.42326 30.1243H4.16144V30.1261Z" fill="white"/>
<path d="M8.70194 30.1262V32.9949C8.70194 33.1337 8.7552 33.2557 8.86171 33.3593C8.96823 33.4518 9.09862 33.5036 9.25288 33.5054H11.6421C11.7982 33.498 11.9286 33.4499 12.0333 33.3575C12.1417 33.2539 12.1931 33.1355 12.1931 32.9968V30.1281H13.3647V33.2058C13.3666 33.5572 13.2344 33.855 12.9644 34.1029C12.6963 34.3507 12.373 34.4746 11.9874 34.4746H8.90763C8.52564 34.4746 8.20059 34.3526 7.93062 34.1029C7.6625 33.855 7.53027 33.5572 7.53027 33.2058V30.1281H8.70194V30.1262Z" fill="white"/>
<path d="M16.3049 30.1262L20.0127 33.1762V30.1262H21.1862V35.4364L16.303 31.4228V34.4709H15.1313V30.1262H16.3049Z" fill="white"/>
<path d="M27.119 30.1262C27.5138 30.1262 27.848 30.2538 28.1217 30.509C28.3971 30.7643 28.5349 31.0731 28.5349 31.4375V31.456H27.3963C27.4036 31.4449 27.4036 31.4375 27.3999 31.4375C27.3999 31.3432 27.365 31.2637 27.2934 31.2008C27.2273 31.1305 27.1392 31.0972 27.0326 31.1046H24.5938C24.4928 31.0972 24.4083 31.1323 24.3367 31.2026C24.2669 31.2655 24.2339 31.3432 24.2339 31.4357C24.2357 31.53 24.2724 31.6095 24.3404 31.6743C24.4102 31.739 24.4928 31.7723 24.5938 31.7723C24.8821 31.7723 25.3266 31.7723 25.9271 31.7686C26.5294 31.763 26.9739 31.763 27.2585 31.7686C27.6662 31.7649 28.0096 31.8999 28.2925 32.1644C28.5826 32.4271 28.724 32.7452 28.7185 33.1188C28.7204 33.4924 28.5771 33.8106 28.2888 34.0713C28.0078 34.334 27.6644 34.4653 27.2567 34.4653H24.4175C24.0153 34.4653 23.6719 34.3321 23.3836 34.0713C23.0989 33.8106 22.9575 33.4906 22.9575 33.1188H24.0539V33.1243C24.0539 33.2298 24.0943 33.3223 24.1769 33.3981C24.2577 33.4739 24.3551 33.5128 24.4689 33.5128H27.1502C27.2677 33.5072 27.365 33.4702 27.444 33.4018C27.5211 33.326 27.5634 33.2353 27.5634 33.1299C27.5634 33.0245 27.5211 32.9338 27.4403 32.8599C27.3595 32.7803 27.2622 32.7433 27.1483 32.7433H24.3826C23.9915 32.7415 23.6572 32.6139 23.3799 32.3586C23.1044 32.1015 22.9667 31.7908 22.9667 31.432C22.9667 31.0694 23.1044 30.7643 23.3799 30.5146C23.6535 30.263 23.9878 30.1317 24.3826 30.1206H27.119V30.1262Z" fill="white"/>
<path d="M31.6607 30.1262V31.752H35.1279V30.1262H36.2996V34.4709H35.1279V32.7212H31.6607V34.4709H30.489V30.1262H31.6607Z" fill="white"/>
<path d="M39.2415 30.1262V34.4709H38.0698V30.1262H39.2415Z" fill="white"/>
<path d="M42.1836 30.1262L45.8915 33.1762V30.1262H47.0668V34.4709H45.8915L42.1836 31.4228V34.4709H41.012V30.1262H42.1836Z" fill="white"/>
<path d="M54.1355 30.1262V31.0917H50.0071V31.8038H53.5846V32.7563H50.0071V33.5054H54.1355V34.4728H48.8354V30.1281H54.1355V30.1262Z" fill="white"/>
<path d="M31.0266 17.5469C31.0284 17.5506 31.0303 17.5543 31.0321 17.558C31.0394 17.5488 31.0449 17.5395 31.0523 17.5321C31.0835 17.4915 31.1147 17.4508 31.146 17.4101C33.6729 14.1511 36.4791 11.127 39.5258 8.36555L36.7692 6.86922C36.7711 6.86922 36.7729 6.86922 36.7729 6.86737C36.918 6.82853 37.0649 6.78599 37.21 6.749C39.0134 6.2718 40.8554 5.89818 42.7341 5.62814C44.06 4.56462 45.4245 3.5492 46.8257 2.58186C46.7008 3.26991 46.5925 3.96166 46.5025 4.66265C46.4786 4.85501 46.4584 5.04737 46.4364 5.23788C46.4584 5.23603 46.4823 5.23603 46.5043 5.23418C47.5823 5.16204 48.6695 5.1232 49.7659 5.1232C50.5427 5.1232 51.3159 5.14355 52.0854 5.18054C52.1368 5.18239 52.1882 5.18424 52.2378 5.18609C52.2415 5.18609 52.247 5.18609 52.2506 5.18609C52.2562 5.18609 52.2598 5.18609 52.2653 5.18609C52.2635 5.18424 52.2635 5.18239 52.2617 5.18054C52.2598 5.17869 52.2598 5.17684 52.258 5.17499C52.2562 5.17129 52.2525 5.16574 52.2488 5.16204C51.8356 4.58682 51.371 4.03379 50.8494 3.52145C50.0671 2.75202 49.2076 2.11206 48.2986 1.59417C47.9221 1.37962 47.5364 1.18726 47.1434 1.0171C42.589 -0.967519 37.0961 -0.0464199 33.4268 3.75635C33.2322 3.95796 33.0504 4.16511 32.8704 4.37597C31.6767 5.79091 30.8448 7.40745 30.3801 9.10353C29.618 11.8835 29.8347 14.8743 31.0174 17.5284C31.0229 17.5358 31.0247 17.5414 31.0266 17.5469Z" fill="white"/>
<path d="M64.9242 1.93438C64.9077 1.90294 64.8801 1.8789 64.8563 1.853C64.0225 0.900459 59.4644 2.30245 53.202 5.24701C52.9798 5.35244 52.7539 5.45786 52.5281 5.56699C50.6475 6.46589 48.6292 7.49427 46.5173 8.63362C46.4108 8.69096 46.3061 8.74829 46.1977 8.80563C46.1941 8.9647 46.1922 9.12561 46.1922 9.28468C46.1904 9.416 46.1867 9.54547 46.1867 9.67494C46.1867 10.461 46.2124 11.2415 46.2583 12.0165C46.2987 12.699 46.3557 13.3741 46.431 14.0455C45.3658 12.9765 44.2529 11.9536 43.0941 10.9845C42.9876 10.8957 42.8792 10.8069 42.7709 10.7181C42.3981 10.9327 42.0235 11.1491 41.647 11.3692C37.7739 13.6294 34.2258 15.8951 31.2342 17.9852C30.8504 18.2534 30.4757 18.5197 30.1103 18.7805C24.7992 22.5925 21.545 25.6998 21.8756 26.8891C21.8884 26.9335 21.9031 26.9761 21.9251 27.0149C22.2006 27.4976 23.2235 27.5087 24.8157 27.124C27.2527 26.534 31.023 25.0118 35.4875 22.8163C39.4322 25.439 44.5266 25.5297 48.5466 23.1178C49.4556 22.574 50.3096 21.9026 51.0809 21.1017C51.316 20.8594 51.5345 20.6061 51.7457 20.3508C53.7952 17.8539 54.73 14.7484 54.5518 11.6966C57.3212 9.80441 59.6719 8.03805 61.4368 6.52323C64.0078 4.32221 65.3393 2.65942 64.9242 1.93438ZM54.6584 5.36908C57.7602 4.20014 59.8647 3.83577 60.2724 4.54601C60.4653 4.88264 60.2596 5.43012 59.7252 6.13666C58.8235 7.3278 56.976 8.97765 54.471 10.8476C54.2617 9.19035 53.7218 7.56825 52.8513 6.08857C53.4867 5.82223 54.0891 5.58179 54.6584 5.36908ZM28.4703 21.1036C29.2802 20.3323 30.3105 19.463 31.5207 18.5308C32.0845 19.5407 32.7952 20.4877 33.6602 21.3366C34.0238 21.6936 34.4039 22.0191 34.7969 22.3225C30.2462 24.3256 27.0048 25.1524 26.4888 24.2498C26.4833 24.2387 26.4814 24.2257 26.4759 24.2146C26.2059 23.6523 26.9534 22.5481 28.4703 21.1036Z" fill="white"/>
</g>
<defs>
<clipPath id="clip0">
<rect width="65" height="41" fill="white"/>
</clipPath>
</defs>
</svg>
